<svg xmlns="http://www.w3.org/2000/svg" width="104.622" height="50.014" viewBox="0 0 104.622 50.014">
  <g id="Grupo_59" data-name="Grupo 59" transform="translate(-1300.409 -99.574)">
    <path id="Trazado_622" data-name="Trazado 622" d="M1383.484,148.589h-61.526l-20.227-46.5,2.882-1.211,19.413,44.638h57.389l19.415-44.638,2.881,1.211Z" fill="#fff" stroke="#fff" stroke-miterlimit="10" stroke-width="2"/>
    <path id="Trazado_623" data-name="Trazado 623" d="M1320.126,123.408l-2.831-1.316c1.4-2.922,5.473-9.66,13.012-9.66h.234a13.566,13.566,0,0,1,10.16,4.859c.1.117,2.1,2.48,6.422,2.35a10.453,10.453,0,0,0,6.618-2.506c.734-.874,4.963-5.388,12.637-3.69a12.43,12.43,0,0,1,5.48,2.885l.825.723a9.725,9.725,0,0,0,5.578,1.814c3.218.059,5.564-1.465,8.044-3.734a13.723,13.723,0,0,1,11.652-2.759c3.48.675,6.371,3.4,8.1,5.034.282.268.522.495.725.668l-2.08,2.3c-.226-.191-.5-.454-.811-.752-1.482-1.389-3.96-3.729-6.55-4.235a10.561,10.561,0,0,0-8.958,2.049c-2.536,2.316-5.543,4.509-10,4.509-.05,0-.1,0-.155,0a13.176,13.176,0,0,1-8.492-3.272l-.891-.778a8.613,8.613,0,0,0-3.156-1.444c-6.349-1.4-9.529,2.63-9.563,2.676l-.194.209a13.5,13.5,0,0,1-8.708,3.376c-5.99.18-8.848-3.347-8.972-3.5a10.252,10.252,0,0,0-7.771-3.706h-.164C1324.556,115.5,1321.275,121.016,1320.126,123.408Z" transform="translate(-9.155 -6.584)" fill="#fff" stroke="#fff" stroke-miterlimit="10" stroke-width="2"/>
    <path id="Trazado_624" data-name="Trazado 624" d="M1441.1,165.439a3.9,3.9,0,1,1-3.9-3.828A3.866,3.866,0,0,1,1441.1,165.439Z" transform="translate(-77.384 -35.72)" fill="#fff" stroke="rgba(0,0,0,0)" stroke-width="1"/>
    <path id="Trazado_625" data-name="Trazado 625" d="M1406.151,165.439a3.9,3.9,0,1,1-3.9-3.828A3.864,3.864,0,0,1,1406.151,165.439Z" transform="translate(-56.829 -35.72)" fill="#fff" stroke="rgba(0,0,0,0)" stroke-width="1"/>
  </g>
</svg>
