<svg xmlns="http://www.w3.org/2000/svg" width="124.483" height="56.393" viewBox="0 0 124.483 56.393">
  <g id="Grupo_58" data-name="Grupo 58" transform="translate(-2035.262 17.997)">
    <g id="Grupo_56" data-name="Grupo 56" transform="translate(2036.524 -3.381)">
      <line id="Línea_3" data-name="Línea 3" x2="121.04" y2="37.712" transform="translate(0.46 1.406)" fill="#fff" stroke="#fff" stroke-miterlimit="10" stroke-width="3"/>
      <path id="Trazado_619" data-name="Trazado 619" d="M2157.57,56.833l-121.045-37.7.914-2.827L2158.483,54Z" transform="translate(-2036.524 -16.306)" fill="#fff" stroke="#fff" stroke-miterlimit="10" stroke-width="2"/>
    </g>
    <g id="Grupo_57" data-name="Grupo 57" transform="translate(2036.524 -3.381)">
      <line id="Línea_4" data-name="Línea 4" x1="121.04" y2="37.712" transform="translate(0.46 1.406)" fill="#fff" stroke="#fff" stroke-miterlimit="10" stroke-width="3"/>
      <path id="Trazado_620" data-name="Trazado 620" d="M2037.439,56.833,2036.524,54l121.045-37.7.913,2.827Z" transform="translate(-2036.524 -16.306)" fill="#fff" stroke="#fff" stroke-miterlimit="10" stroke-width="2"/>
    </g>
    <path id="Trazado_621" data-name="Trazado 621" d="M2163.137,30.974h-82.091l.045-1.526c.029-.95.892-23.317,16.844-27.642l.4-.049,53.466-.087-4.387-15.7h-40.426V-17h42.734Zm-78.91-2.963h74.943l-6.531-23.374-54.094.083C2087.1,7.991,2084.7,23.119,2084.227,28.011Z" transform="translate(-26.319)" fill="#fff" stroke="#fff" stroke-miterlimit="10" stroke-width="2"/>
  </g>
</svg>
