<svg xmlns="http://www.w3.org/2000/svg" width="88.747" height="85.52" viewBox="0 0 88.747 85.52">
  <g id="Grupo_55" data-name="Grupo 55" transform="translate(-1700.644 47.673)">
    <g id="Grupo_53" data-name="Grupo 53" transform="translate(1702.362 -46.835)">
      <line id="Línea_1" data-name="Línea 1" x1="83.886" y2="80.719" transform="translate(1.216 1.213)" fill="#fff" stroke="#fff" stroke-miterlimit="10" stroke-width="2"/>
      <path id="Trazado_615" data-name="Trazado 615" d="M1706.658,36.572l-2.433-2.432L1788.1-46.58l2.437,2.435Z" transform="translate(-1704.225 46.58)" fill="#fff" stroke="#fff" stroke-miterlimit="10" stroke-width="1"/>
    </g>
    <g id="Grupo_54" data-name="Grupo 54" transform="translate(1701.358 -46.972)">
      <line id="Línea_2" data-name="Línea 2" x2="84.886" y2="81.686" transform="translate(1.221 1.216)" fill="#fff" stroke="#fff" stroke-miterlimit="10" stroke-width="2"/>
      <path id="Trazado_616" data-name="Trazado 616" d="M1786.24,37.146l-49.6-47.729-35.285-33.956,2.435-2.434,84.883,81.682Z" transform="translate(-1701.358 46.972)" fill="#fff" stroke="#fff" stroke-miterlimit="10" stroke-width="1"/>
    </g>
    <path id="Trazado_617" data-name="Trazado 617" d="M1798.512,46.113h-64.3V-17h64.3Zm-60.833-3.407h57.363v-56.3H1737.68Z" transform="translate(-21.341 -19.474)" fill="#fff" stroke="#fff" stroke-miterlimit="10" stroke-width="1"/>
    <path id="Trazado_618" data-name="Trazado 618" d="M1766.362,46.113a32.56,32.56,0,0,1-21.474-8.086,31.074,31.074,0,0,1-10.679-23.463c0-17.405,14.419-31.561,32.154-31.561s32.151,14.156,32.151,31.561S1784.09,46.113,1766.362,46.113Zm0-59.7c-15.818,0-28.682,12.632-28.682,28.155s12.863,28.142,28.682,28.142,28.682-12.628,28.682-28.142S1782.174-13.591,1766.362-13.591Z" transform="translate(-21.341 -19.474)" fill="#fff" stroke="#fff" stroke-miterlimit="10" stroke-width="2"/>
  </g>
</svg>
