<svg xmlns="http://www.w3.org/2000/svg" width="23.565" height="21.395" viewBox="0 0 23.565 21.395">
  <g id="Vrstva_173" data-name="Vrstva 173" transform="translate(0 0)">
    <path id="Trazado_193" data-name="Trazado 193" d="M23.422,8.758H19.156a1.03,1.03,0,0,0-.065-.2l-2.7-5.008L14.523,4.71l2.16,4.048H9.35L11.51,4.71,9.663,3.554l-2.7,5.008a1.03,1.03,0,0,0-.065.2H2.384s.266-.426-.05.008-1.213,1.727-1.213,1.727L4.263,23.9l1.264,1.052H20.29L21.543,23.9l3.143-13.4L23.422,8.758Zm-3.8,13.878H6.186l-2.7-11.565H22.32Z" transform="translate(-1.121 -3.554)" fill="#fff"/>
  </g>
</svg>
