<?xml version="1.0" encoding="utf-8"?>
<!-- Generator: Adobe Illustrator 24.1.3, SVG Export Plug-In . SVG Version: 6.00 Build 0)  -->
<svg version="1.1" id="Capa_1" xmlns="http://www.w3.org/2000/svg" xmlns:xlink="http://www.w3.org/1999/xlink" x="0px" y="0px"
	 viewBox="0 0 40 40" style="enable-background:new 0 0 40 40;" xml:space="preserve">
<style type="text/css">
	.st0{fill-rule:evenodd;clip-rule:evenodd;fill:#FFFFFF;}
</style>
<path id="Trazado_596" class="st0" d="M22.4,22.93l6.76,11.71c-5.67,3.27-12.65,3.27-18.32,0l6.76-11.71
	C19.09,23.78,20.92,23.78,22.4,22.93L22.4,22.93z"/>
<path id="Trazado_597" class="st0" d="M17.25,18.77c0-1.52,1.23-2.75,2.75-2.75c1.52,0,2.75,1.23,2.75,2.75
	c0,1.52-1.23,2.75-2.75,2.75C18.48,21.52,17.25,20.29,17.25,18.77C17.25,18.77,17.25,18.77,17.25,18.77z"/>
<path id="Trazado_598" class="st0" d="M22.4,14.62l6.76-11.71c5.67,3.27,9.16,9.32,9.16,15.86H24.8
	C24.8,17.06,23.88,15.48,22.4,14.62L22.4,14.62z"/>
<path id="Trazado_599" class="st0" d="M15.21,18.77H1.68c0-6.54,3.49-12.59,9.16-15.86l6.76,11.71
	C16.12,15.48,15.2,17.06,15.21,18.77L15.21,18.77z"/>
</svg>
