<?xml version="1.0" encoding="utf-8"?>
<!-- Generator: Adobe Illustrator 24.1.3, SVG Export Plug-In . SVG Version: 6.00 Build 0)  -->
<svg version="1.1" id="Capa_1" xmlns="http://www.w3.org/2000/svg" xmlns:xlink="http://www.w3.org/1999/xlink" x="0px" y="0px"
	 viewBox="0 0 40 40" style="enable-background:new 0 0 40 40;" xml:space="preserve">
<style type="text/css">
	.st0{fill:#010202;}
	.st1{fill:#FFFFFF;}
</style>
<rect id="Rectángulo_3" x="35.38" y="5.61" class="st0" width="1.38" height="1.38"/>
<rect id="Rectángulo_4" x="35.38" y="6.99" class="st1" width="1.38" height="1.38"/>
<rect id="Rectángulo_5" x="35.38" y="8.83" class="st1" width="1.38" height="1.38"/>
<rect id="Rectángulo_6" x="35.38" y="10.33" class="st0" width="1.38" height="1.38"/>
<rect id="Rectángulo_7" x="35.38" y="11.83" class="st1" width="1.38" height="1.38"/>
<rect id="Rectángulo_8" x="35.38" y="13.33" class="st0" width="1.38" height="1.38"/>
<rect id="Rectángulo_9" x="35.38" y="14.83" class="st0" width="1.38" height="1.38"/>
<rect id="Rectángulo_10" x="35.38" y="16.33" class="st1" width="1.38" height="1.38"/>
<rect id="Rectángulo_11" x="35.38" y="4.23" class="st1" width="1.38" height="1.38"/>
<rect id="Rectángulo_12" x="35.38" y="2.84" class="st1" width="1.38" height="1.38"/>
<rect id="Rectángulo_13" x="33.99" y="5.61" class="st1" width="1.38" height="1.38"/>
<rect id="Rectángulo_14" x="33.99" y="6.99" class="st1" width="1.38" height="1.38"/>
<rect id="Rectángulo_15" x="33.99" y="8.83" class="st1" width="1.38" height="1.38"/>
<rect id="Rectángulo_16" x="33.99" y="10.33" class="st1" width="1.38" height="1.38"/>
<rect id="Rectángulo_17" x="33.99" y="11.83" class="st0" width="1.38" height="1.38"/>
<rect id="Rectángulo_18" x="33.99" y="13.33" class="st1" width="1.38" height="1.38"/>
<rect id="Rectángulo_19" x="33.99" y="14.83" class="st1" width="1.38" height="1.38"/>
<rect id="Rectángulo_20" x="33.99" y="16.33" class="st1" width="1.38" height="1.38"/>
<rect id="Rectángulo_21" x="33.99" y="4.23" class="st0" width="1.38" height="1.38"/>
<rect id="Rectángulo_22" x="33.99" y="2.84" class="st0" width="1.38" height="1.38"/>
<rect id="Rectángulo_23" x="32.61" y="5.61" class="st0" width="1.38" height="1.38"/>
<rect id="Rectángulo_24" x="32.61" y="6.99" class="st0" width="1.38" height="1.38"/>
<rect id="Rectángulo_25" x="32.61" y="8.83" class="st1" width="1.38" height="1.38"/>
<rect id="Rectángulo_26" x="32.61" y="10.33" class="st0" width="1.38" height="1.38"/>
<rect id="Rectángulo_27" x="32.61" y="11.83" class="st0" width="1.38" height="1.38"/>
<rect id="Rectángulo_28" x="32.61" y="13.33" class="st1" width="1.38" height="1.38"/>
<rect id="Rectángulo_29" x="32.61" y="14.83" class="st0" width="1.38" height="1.38"/>
<rect id="Rectángulo_30" x="32.61" y="16.33" class="st0" width="1.38" height="1.38"/>
<rect id="Rectángulo_31" x="32.61" y="4.23" class="st0" width="1.38" height="1.38"/>
<rect id="Rectángulo_32" x="32.61" y="2.84" class="st0" width="1.38" height="1.38"/>
<rect id="Rectángulo_33" x="31.23" y="5.61" class="st1" width="1.38" height="1.38"/>
<rect id="Rectángulo_34" x="31.23" y="6.99" class="st1" width="1.38" height="1.38"/>
<rect id="Rectángulo_35" x="31.23" y="8.83" class="st0" width="1.38" height="1.38"/>
<rect id="Rectángulo_36" x="31.23" y="10.33" class="st0" width="1.38" height="1.38"/>
<rect id="Rectángulo_37" x="31.23" y="11.83" class="st0" width="1.38" height="1.38"/>
<rect id="Rectángulo_38" x="31.23" y="13.33" class="st1" width="1.38" height="1.38"/>
<rect id="Rectángulo_39" x="31.23" y="14.83" class="st0" width="1.38" height="1.38"/>
<rect id="Rectángulo_40" x="31.23" y="16.33" class="st0" width="1.38" height="1.38"/>
<rect id="Rectángulo_41" x="31.23" y="4.23" class="st0" width="1.38" height="1.38"/>
<rect id="Rectángulo_42" x="31.23" y="2.84" class="st1" width="1.38" height="1.38"/>
<rect id="Rectángulo_43" x="29.39" y="5.61" class="st1" width="1.38" height="1.38"/>
<rect id="Rectángulo_44" x="29.39" y="6.99" class="st1" width="1.38" height="1.38"/>
<rect id="Rectángulo_45" x="29.39" y="8.83" class="st0" width="1.38" height="1.38"/>
<rect id="Rectángulo_46" x="29.39" y="10.33" class="st1" width="1.38" height="1.38"/>
<rect id="Rectángulo_47" x="29.39" y="11.83" class="st0" width="1.38" height="1.38"/>
<rect id="Rectángulo_48" x="29.39" y="13.33" class="st1" width="1.38" height="1.38"/>
<rect id="Rectángulo_49" x="29.39" y="14.83" class="st0" width="1.38" height="1.38"/>
<rect id="Rectángulo_50" x="29.39" y="16.33" class="st0" width="1.38" height="1.38"/>
<rect id="Rectángulo_51" x="29.39" y="4.23" class="st1" width="1.38" height="1.38"/>
<rect id="Rectángulo_52" x="29.39" y="2.84" class="st1" width="1.38" height="1.38"/>
<rect id="Rectángulo_53" x="27.89" y="5.61" class="st0" width="1.38" height="1.38"/>
<rect id="Rectángulo_54" x="27.89" y="6.99" class="st1" width="1.38" height="1.38"/>
<rect id="Rectángulo_55" x="27.89" y="8.83" class="st0" width="1.38" height="1.38"/>
<rect id="Rectángulo_56" x="27.89" y="10.33" class="st0" width="1.38" height="1.38"/>
<rect id="Rectángulo_57" x="27.89" y="11.83" class="st1" width="1.38" height="1.38"/>
<rect id="Rectángulo_58" x="27.89" y="13.33" class="st0" width="1.38" height="1.38"/>
<rect id="Rectángulo_59" x="27.89" y="14.83" class="st1" width="1.38" height="1.38"/>
<rect id="Rectángulo_60" x="27.89" y="16.33" class="st0" width="1.38" height="1.38"/>
<rect id="Rectángulo_61" x="27.89" y="4.23" class="st1" width="1.38" height="1.38"/>
<rect id="Rectángulo_62" x="27.89" y="2.84" class="st1" width="1.38" height="1.38"/>
<rect id="Rectángulo_63" x="26.39" y="5.61" class="st1" width="1.38" height="1.38"/>
<rect id="Rectángulo_64" x="26.39" y="6.99" class="st1" width="1.38" height="1.38"/>
<rect id="Rectángulo_65" x="26.39" y="8.83" class="st0" width="1.38" height="1.38"/>
<rect id="Rectángulo_66" x="26.39" y="10.33" class="st1" width="1.38" height="1.38"/>
<rect id="Rectángulo_67" x="26.39" y="11.83" class="st0" width="1.38" height="1.38"/>
<rect id="Rectángulo_68" x="26.39" y="13.33" class="st0" width="1.38" height="1.38"/>
<rect id="Rectángulo_69" x="26.39" y="14.83" class="st0" width="1.38" height="1.38"/>
<rect id="Rectángulo_70" x="26.39" y="16.33" class="st0" width="1.38" height="1.38"/>
<rect id="Rectángulo_71" x="26.39" y="4.23" class="st0" width="1.38" height="1.38"/>
<rect id="Rectángulo_72" x="26.39" y="2.84" class="st1" width="1.38" height="1.38"/>
<rect id="Rectángulo_73" x="24.89" y="5.61" class="st0" width="1.38" height="1.38"/>
<rect id="Rectángulo_74" x="24.89" y="6.99" class="st1" width="1.38" height="1.38"/>
<rect id="Rectángulo_75" x="24.89" y="8.83" class="st0" width="1.38" height="1.38"/>
<rect id="Rectángulo_76" x="24.89" y="10.33" class="st1" width="1.38" height="1.38"/>
<rect id="Rectángulo_77" x="24.89" y="11.83" class="st1" width="1.38" height="1.38"/>
<rect id="Rectángulo_78" x="24.89" y="13.33" class="st0" width="1.38" height="1.38"/>
<rect id="Rectángulo_79" x="24.89" y="14.83" class="st0" width="1.38" height="1.38"/>
<rect id="Rectángulo_80" x="24.89" y="16.33" class="st0" width="1.38" height="1.38"/>
<rect id="Rectángulo_81" x="24.89" y="4.23" class="st0" width="1.38" height="1.38"/>
<rect id="Rectángulo_82" x="24.89" y="2.84" class="st0" width="1.38" height="1.38"/>
<rect id="Rectángulo_83" x="23.39" y="5.61" class="st1" width="1.38" height="1.38"/>
<rect id="Rectángulo_84" x="23.39" y="6.99" class="st1" width="1.38" height="1.38"/>
<rect id="Rectángulo_85" x="23.39" y="8.83" class="st0" width="1.38" height="1.38"/>
<rect id="Rectángulo_86" x="23.39" y="10.33" class="st0" width="1.38" height="1.38"/>
<rect id="Rectángulo_87" x="23.39" y="11.83" class="st0" width="1.38" height="1.38"/>
<rect id="Rectángulo_88" x="23.39" y="13.33" class="st0" width="1.38" height="1.38"/>
<rect id="Rectángulo_89" x="23.39" y="14.83" class="st1" width="1.38" height="1.38"/>
<rect id="Rectángulo_90" x="23.39" y="16.33" class="st1" width="1.38" height="1.38"/>
<rect id="Rectángulo_91" x="23.39" y="4.23" class="st1" width="1.38" height="1.38"/>
<rect id="Rectángulo_92" x="23.39" y="2.84" class="st0" width="1.38" height="1.38"/>
<rect id="Rectángulo_93" x="21.89" y="5.61" class="st1" width="1.38" height="1.38"/>
<rect id="Rectángulo_94" x="21.89" y="6.99" class="st0" width="1.38" height="1.38"/>
<rect id="Rectángulo_95" x="21.89" y="8.83" class="st0" width="1.38" height="1.38"/>
<rect id="Rectángulo_96" x="21.89" y="10.33" class="st0" width="1.38" height="1.38"/>
<rect id="Rectángulo_97" x="21.89" y="11.83" class="st0" width="1.38" height="1.38"/>
<rect id="Rectángulo_98" x="21.89" y="13.33" class="st0" width="1.38" height="1.38"/>
<rect id="Rectángulo_99" x="21.89" y="14.83" class="st1" width="1.38" height="1.38"/>
<rect id="Rectángulo_100" x="21.89" y="16.33" class="st0" width="1.38" height="1.38"/>
<rect id="Rectángulo_101" x="21.89" y="4.23" class="st0" width="1.38" height="1.38"/>
<rect id="Rectángulo_102" x="21.89" y="2.84" class="st0" width="1.38" height="1.38"/>
<rect id="Rectángulo_103" x="35.38" y="20.82" class="st1" width="1.38" height="1.38"/>
<rect id="Rectángulo_104" x="35.38" y="22.32" class="st0" width="1.38" height="1.38"/>
<rect id="Rectángulo_105" x="35.38" y="23.82" class="st1" width="1.38" height="1.38"/>
<rect id="Rectángulo_106" x="35.38" y="25.31" class="st1" width="1.38" height="1.38"/>
<rect id="Rectángulo_107" x="35.38" y="26.81" class="st0" width="1.38" height="1.38"/>
<rect id="Rectángulo_108" x="35.38" y="28.31" class="st0" width="1.38" height="1.38"/>
<rect id="Rectángulo_109" x="35.38" y="29.81" class="st1" width="1.38" height="1.38"/>
<rect id="Rectángulo_110" x="35.38" y="31.65" class="st1" width="1.38" height="1.38"/>
<rect id="Rectángulo_111" x="35.38" y="19.32" class="st1" width="1.38" height="1.38"/>
<rect id="Rectángulo_112" x="35.38" y="17.82" class="st1" width="1.38" height="1.38"/>
<rect id="Rectángulo_113" x="33.99" y="20.82" class="st0" width="1.38" height="1.38"/>
<rect id="Rectángulo_114" x="33.99" y="22.32" class="st1" width="1.38" height="1.38"/>
<rect id="Rectángulo_115" x="33.99" y="23.82" class="st1" width="1.38" height="1.38"/>
<rect id="Rectángulo_116" x="33.99" y="25.31" class="st1" width="1.38" height="1.38"/>
<rect id="Rectángulo_117" x="33.99" y="26.81" class="st0" width="1.38" height="1.38"/>
<rect id="Rectángulo_118" x="33.99" y="28.31" class="st0" width="1.38" height="1.38"/>
<rect id="Rectángulo_119" x="33.99" y="29.81" class="st1" width="1.38" height="1.38"/>
<rect id="Rectángulo_120" x="33.99" y="31.65" class="st1" width="1.38" height="1.38"/>
<rect id="Rectángulo_121" x="33.99" y="19.32" class="st1" width="1.38" height="1.38"/>
<rect id="Rectángulo_122" x="33.99" y="17.82" class="st1" width="1.38" height="1.38"/>
<rect id="Rectángulo_123" x="32.61" y="20.82" class="st1" width="1.38" height="1.38"/>
<rect id="Rectángulo_124" x="32.61" y="22.32" class="st1" width="1.38" height="1.38"/>
<rect id="Rectángulo_125" x="32.61" y="23.82" class="st1" width="1.38" height="1.38"/>
<rect id="Rectángulo_126" x="32.61" y="25.31" class="st1" width="1.38" height="1.38"/>
<rect id="Rectángulo_127" x="32.61" y="26.81" class="st0" width="1.38" height="1.38"/>
<rect id="Rectángulo_128" x="32.61" y="28.31" class="st0" width="1.38" height="1.38"/>
<rect id="Rectángulo_129" x="32.61" y="29.81" class="st1" width="1.38" height="1.38"/>
<rect id="Rectángulo_130" x="32.61" y="31.65" class="st1" width="1.38" height="1.38"/>
<rect id="Rectángulo_131" x="32.61" y="19.32" class="st1" width="1.38" height="1.38"/>
<rect id="Rectángulo_132" x="32.61" y="17.82" class="st1" width="1.38" height="1.38"/>
<rect id="Rectángulo_133" x="31.23" y="20.82" class="st0" width="1.38" height="1.38"/>
<rect id="Rectángulo_134" x="31.23" y="22.32" class="st1" width="1.38" height="1.38"/>
<rect id="Rectángulo_135" x="31.23" y="23.82" class="st1" width="1.38" height="1.38"/>
<rect id="Rectángulo_136" x="31.23" y="25.31" class="st0" width="1.38" height="1.38"/>
<rect id="Rectángulo_137" x="31.23" y="26.81" class="st1" width="1.38" height="1.38"/>
<rect id="Rectángulo_138" x="31.23" y="28.31" class="st1" width="1.38" height="1.38"/>
<rect id="Rectángulo_139" x="31.23" y="29.81" class="st0" width="1.38" height="1.38"/>
<rect id="Rectángulo_140" x="31.23" y="31.65" class="st1" width="1.38" height="1.38"/>
<rect id="Rectángulo_141" x="31.23" y="19.32" class="st0" width="1.38" height="1.38"/>
<rect id="Rectángulo_142" x="31.23" y="17.82" class="st0" width="1.38" height="1.38"/>
<rect id="Rectángulo_143" x="29.39" y="20.82" class="st0" width="1.38" height="1.38"/>
<rect id="Rectángulo_144" x="29.39" y="22.32" class="st0" width="1.38" height="1.38"/>
<rect id="Rectángulo_145" x="29.39" y="23.82" class="st1" width="1.38" height="1.38"/>
<rect id="Rectángulo_146" x="29.39" y="25.31" class="st1" width="1.38" height="1.38"/>
<rect id="Rectángulo_147" x="29.39" y="26.81" class="st1" width="1.38" height="1.38"/>
<rect id="Rectángulo_148" x="29.39" y="28.31" class="st0" width="1.38" height="1.38"/>
<rect id="Rectángulo_149" x="29.39" y="29.81" class="st1" width="1.38" height="1.38"/>
<rect id="Rectángulo_150" x="29.39" y="31.65" class="st1" width="1.38" height="1.38"/>
<rect id="Rectángulo_151" x="29.39" y="19.32" class="st0" width="1.38" height="1.38"/>
<rect id="Rectángulo_152" x="29.39" y="17.82" class="st1" width="1.38" height="1.38"/>
<rect id="Rectángulo_153" x="27.89" y="20.82" class="st0" width="1.38" height="1.38"/>
<rect id="Rectángulo_154" x="27.89" y="22.32" class="st1" width="1.38" height="1.38"/>
<rect id="Rectángulo_155" x="27.89" y="23.82" class="st1" width="1.38" height="1.38"/>
<rect id="Rectángulo_156" x="27.89" y="25.31" class="st0" width="1.38" height="1.38"/>
<rect id="Rectángulo_157" x="27.89" y="26.81" class="st0" width="1.38" height="1.38"/>
<rect id="Rectángulo_158" x="27.89" y="28.31" class="st1" width="1.38" height="1.38"/>
<rect id="Rectángulo_159" x="27.89" y="29.81" class="st0" width="1.38" height="1.38"/>
<rect id="Rectángulo_160" x="27.89" y="31.65" class="st0" width="1.38" height="1.38"/>
<rect id="Rectángulo_161" x="27.89" y="19.32" class="st0" width="1.38" height="1.38"/>
<rect id="Rectángulo_162" x="27.89" y="17.82" class="st0" width="1.38" height="1.38"/>
<rect id="Rectángulo_163" x="26.39" y="20.82" class="st0" width="1.38" height="1.38"/>
<rect id="Rectángulo_164" x="26.39" y="22.32" class="st0" width="1.38" height="1.38"/>
<rect id="Rectángulo_165" x="26.39" y="23.82" class="st1" width="1.38" height="1.38"/>
<rect id="Rectángulo_166" x="26.39" y="25.31" class="st0" width="1.38" height="1.38"/>
<rect id="Rectángulo_167" x="26.39" y="26.81" class="st1" width="1.38" height="1.38"/>
<rect id="Rectángulo_168" x="26.39" y="28.31" class="st0" width="1.38" height="1.38"/>
<rect id="Rectángulo_169" x="26.39" y="29.81" class="st0" width="1.38" height="1.38"/>
<rect id="Rectángulo_170" x="26.39" y="31.65" class="st1" width="1.38" height="1.38"/>
<rect id="Rectángulo_171" x="26.39" y="19.32" class="st0" width="1.38" height="1.38"/>
<rect id="Rectángulo_172" x="26.39" y="17.82" class="st1" width="1.38" height="1.38"/>
<rect id="Rectángulo_173" x="24.89" y="20.82" class="st0" width="1.38" height="1.38"/>
<rect id="Rectángulo_174" x="24.89" y="22.32" class="st0" width="1.38" height="1.38"/>
<rect id="Rectángulo_175" x="24.89" y="23.82" class="st0" width="1.38" height="1.38"/>
<rect id="Rectángulo_176" x="24.89" y="25.31" class="st0" width="1.38" height="1.38"/>
<rect id="Rectángulo_177" x="24.89" y="26.81" class="st1" width="1.38" height="1.38"/>
<rect id="Rectángulo_178" x="24.89" y="28.31" class="st0" width="1.38" height="1.38"/>
<rect id="Rectángulo_179" x="24.89" y="29.81" class="st1" width="1.38" height="1.38"/>
<rect id="Rectángulo_180" x="24.89" y="31.65" class="st0" width="1.38" height="1.38"/>
<rect id="Rectángulo_181" x="24.89" y="19.32" class="st0" width="1.38" height="1.38"/>
<rect id="Rectángulo_182" x="24.89" y="17.82" class="st0" width="1.38" height="1.38"/>
<rect id="Rectángulo_183" x="23.39" y="20.82" class="st1" width="1.38" height="1.38"/>
<rect id="Rectángulo_184" x="23.39" y="22.32" class="st1" width="1.38" height="1.38"/>
<rect id="Rectángulo_185" x="23.39" y="23.82" class="st1" width="1.38" height="1.38"/>
<rect id="Rectángulo_186" x="23.39" y="25.31" class="st0" width="1.38" height="1.38"/>
<rect id="Rectángulo_187" x="23.39" y="26.81" class="st1" width="1.38" height="1.38"/>
<rect id="Rectángulo_188" x="23.39" y="28.31" class="st1" width="1.38" height="1.38"/>
<rect id="Rectángulo_189" x="23.39" y="29.81" class="st1" width="1.38" height="1.38"/>
<rect id="Rectángulo_190" x="23.39" y="31.65" class="st0" width="1.38" height="1.38"/>
<rect id="Rectángulo_191" x="23.39" y="19.32" class="st1" width="1.38" height="1.38"/>
<rect id="Rectángulo_192" x="23.39" y="17.82" class="st1" width="1.38" height="1.38"/>
<rect id="Rectángulo_193" x="21.89" y="20.82" class="st0" width="1.38" height="1.38"/>
<rect id="Rectángulo_194" x="21.89" y="22.32" class="st0" width="1.38" height="1.38"/>
<rect id="Rectángulo_195" x="21.89" y="23.82" class="st1" width="1.38" height="1.38"/>
<rect id="Rectángulo_196" x="21.89" y="25.31" class="st0" width="1.38" height="1.38"/>
<rect id="Rectángulo_197" x="21.89" y="26.81" class="st0" width="1.38" height="1.38"/>
<rect id="Rectángulo_198" x="21.89" y="28.31" class="st1" width="1.38" height="1.38"/>
<rect id="Rectángulo_199" x="21.89" y="29.81" class="st0" width="1.38" height="1.38"/>
<rect id="Rectángulo_200" x="21.89" y="31.65" class="st1" width="1.38" height="1.38"/>
<rect id="Rectángulo_201" x="21.89" y="19.32" class="st0" width="1.38" height="1.38"/>
<rect id="Rectángulo_202" x="21.89" y="17.82" class="st0" width="1.38" height="1.38"/>
<rect id="Rectángulo_203" x="20.4" y="5.61" class="st1" width="1.38" height="1.38"/>
<rect id="Rectángulo_204" x="20.4" y="6.99" class="st0" width="1.38" height="1.38"/>
<rect id="Rectángulo_205" x="20.4" y="8.83" class="st0" width="1.38" height="1.38"/>
<rect id="Rectángulo_206" x="20.4" y="10.33" class="st0" width="1.38" height="1.38"/>
<rect id="Rectángulo_207" x="20.4" y="11.83" class="st1" width="1.38" height="1.38"/>
<rect id="Rectángulo_208" x="20.4" y="13.33" class="st0" width="1.38" height="1.38"/>
<rect id="Rectángulo_209" x="20.4" y="14.83" class="st1" width="1.38" height="1.38"/>
<rect id="Rectángulo_210" x="20.4" y="16.33" class="st0" width="1.38" height="1.38"/>
<rect id="Rectángulo_211" x="20.4" y="4.23" class="st0" width="1.38" height="1.38"/>
<rect id="Rectángulo_212" x="20.4" y="2.84" class="st0" width="1.38" height="1.38"/>
<rect id="Rectángulo_213" x="18.9" y="5.61" class="st0" width="1.38" height="1.38"/>
<rect id="Rectángulo_214" x="18.9" y="6.99" class="st0" width="1.38" height="1.38"/>
<rect id="Rectángulo_215" x="18.9" y="8.83" class="st0" width="1.38" height="1.38"/>
<rect id="Rectángulo_216" x="18.9" y="10.33" class="st0" width="1.38" height="1.38"/>
<rect id="Rectángulo_217" x="18.9" y="11.83" class="st0" width="1.38" height="1.38"/>
<rect id="Rectángulo_218" x="18.9" y="13.33" class="st0" width="1.38" height="1.38"/>
<rect id="Rectángulo_219" x="18.9" y="14.83" class="st1" width="1.38" height="1.38"/>
<rect id="Rectángulo_220" x="18.9" y="16.33" class="st0" width="1.38" height="1.38"/>
<rect id="Rectángulo_221" x="18.9" y="4.23" class="st0" width="1.38" height="1.38"/>
<rect id="Rectángulo_222" x="18.9" y="2.84" class="st1" width="1.38" height="1.38"/>
<rect id="Rectángulo_223" x="17.4" y="5.61" class="st0" width="1.38" height="1.38"/>
<rect id="Rectángulo_224" x="17.4" y="6.99" class="st0" width="1.38" height="1.38"/>
<rect id="Rectángulo_225" x="17.4" y="8.83" class="st1" width="1.38" height="1.38"/>
<rect id="Rectángulo_226" x="17.4" y="10.33" class="st0" width="1.38" height="1.38"/>
<rect id="Rectángulo_227" x="17.4" y="11.83" class="st1" width="1.38" height="1.38"/>
<rect id="Rectángulo_228" x="17.4" y="13.33" class="st0" width="1.38" height="1.38"/>
<rect id="Rectángulo_229" x="17.4" y="14.83" class="st1" width="1.38" height="1.38"/>
<rect id="Rectángulo_230" x="17.4" y="16.33" class="st0" width="1.38" height="1.38"/>
<rect id="Rectángulo_231" x="17.4" y="4.23" class="st1" width="1.38" height="1.38"/>
<rect id="Rectángulo_232" x="17.4" y="2.84" class="st0" width="1.38" height="1.38"/>
<rect id="Rectángulo_233" x="15.9" y="5.61" class="st1" width="1.38" height="1.38"/>
<rect id="Rectángulo_234" x="15.9" y="6.99" class="st1" width="1.38" height="1.38"/>
<rect id="Rectángulo_235" x="15.9" y="8.83" class="st0" width="1.38" height="1.38"/>
<rect id="Rectángulo_236" x="15.9" y="10.33" class="st1" width="1.38" height="1.38"/>
<rect id="Rectángulo_237" x="15.9" y="11.83" class="st1" width="1.38" height="1.38"/>
<rect id="Rectángulo_238" x="15.9" y="13.33" class="st0" width="1.38" height="1.38"/>
<rect id="Rectángulo_239" x="15.9" y="14.83" class="st1" width="1.38" height="1.38"/>
<rect id="Rectángulo_240" x="15.9" y="16.33" class="st0" width="1.38" height="1.38"/>
<rect id="Rectángulo_241" x="15.9" y="4.23" class="st1" width="1.38" height="1.38"/>
<rect id="Rectángulo_242" x="15.9" y="2.84" class="st0" width="1.38" height="1.38"/>
<rect id="Rectángulo_243" x="14.41" y="5.61" class="st1" width="1.38" height="1.38"/>
<rect id="Rectángulo_244" x="14.41" y="6.99" class="st1" width="1.38" height="1.38"/>
<rect id="Rectángulo_245" x="14.41" y="8.83" class="st1" width="1.38" height="1.38"/>
<rect id="Rectángulo_246" x="14.41" y="10.33" class="st1" width="1.38" height="1.38"/>
<rect id="Rectángulo_247" x="14.41" y="11.83" class="st0" width="1.38" height="1.38"/>
<rect id="Rectángulo_248" x="14.41" y="13.33" class="st0" width="1.38" height="1.38"/>
<rect id="Rectángulo_249" x="14.41" y="14.83" class="st1" width="1.38" height="1.38"/>
<rect id="Rectángulo_250" x="14.41" y="16.33" class="st1" width="1.38" height="1.38"/>
<rect id="Rectángulo_251" x="14.41" y="4.23" class="st1" width="1.38" height="1.38"/>
<rect id="Rectángulo_252" x="14.41" y="2.84" class="st0" width="1.38" height="1.38"/>
<rect id="Rectángulo_253" x="12.91" y="5.61" class="st0" width="1.38" height="1.38"/>
<rect id="Rectángulo_254" x="12.91" y="6.99" class="st0" width="1.38" height="1.38"/>
<rect id="Rectángulo_255" x="12.91" y="8.83" class="st1" width="1.38" height="1.38"/>
<rect id="Rectángulo_256" x="12.91" y="10.33" class="st0" width="1.38" height="1.38"/>
<rect id="Rectángulo_257" x="12.91" y="11.83" class="st0" width="1.38" height="1.38"/>
<rect id="Rectángulo_258" x="12.91" y="13.33" class="st0" width="1.38" height="1.38"/>
<rect id="Rectángulo_259" x="12.91" y="14.83" class="st0" width="1.38" height="1.38"/>
<rect id="Rectángulo_260" x="12.91" y="16.33" class="st0" width="1.38" height="1.38"/>
<rect id="Rectángulo_261" x="12.91" y="4.23" class="st0" width="1.38" height="1.38"/>
<rect id="Rectángulo_262" x="12.91" y="2.84" class="st1" width="1.38" height="1.38"/>
<rect id="Rectángulo_263" x="11.41" y="5.61" class="st0" width="1.38" height="1.38"/>
<rect id="Rectángulo_264" x="11.41" y="6.99" class="st1" width="1.38" height="1.38"/>
<rect id="Rectángulo_265" x="11.41" y="8.83" class="st0" width="1.38" height="1.38"/>
<rect id="Rectángulo_266" x="11.41" y="10.33" class="st1" width="1.38" height="1.38"/>
<rect id="Rectángulo_267" x="11.41" y="11.83" class="st0" width="1.38" height="1.38"/>
<rect id="Rectángulo_268" x="11.41" y="13.33" class="st0" width="1.38" height="1.38"/>
<rect id="Rectángulo_269" x="11.41" y="14.83" class="st0" width="1.38" height="1.38"/>
<rect id="Rectángulo_270" x="11.41" y="16.33" class="st0" width="1.38" height="1.38"/>
<rect id="Rectángulo_271" x="11.41" y="4.23" class="st1" width="1.38" height="1.38"/>
<rect id="Rectángulo_272" x="11.41" y="2.84" class="st0" width="1.38" height="1.38"/>
<rect id="Rectángulo_273" x="9.91" y="5.61" class="st0" width="1.38" height="1.38"/>
<rect id="Rectángulo_274" x="9.91" y="6.99" class="st0" width="1.38" height="1.38"/>
<rect id="Rectángulo_275" x="9.91" y="8.83" class="st0" width="1.38" height="1.38"/>
<rect id="Rectángulo_276" x="9.91" y="10.33" class="st0" width="1.38" height="1.38"/>
<rect id="Rectángulo_277" x="9.91" y="11.83" class="st0" width="1.38" height="1.38"/>
<rect id="Rectángulo_278" x="9.91" y="13.33" class="st1" width="1.38" height="1.38"/>
<rect id="Rectángulo_279" x="9.91" y="14.83" class="st1" width="1.38" height="1.38"/>
<rect id="Rectángulo_280" x="9.91" y="16.33" class="st0" width="1.38" height="1.38"/>
<rect id="Rectángulo_281" x="9.91" y="4.23" class="st1" width="1.38" height="1.38"/>
<rect id="Rectángulo_282" x="9.91" y="2.84" class="st1" width="1.38" height="1.38"/>
<rect id="Rectángulo_283" x="8.41" y="5.61" class="st1" width="1.38" height="1.38"/>
<rect id="Rectángulo_284" x="8.41" y="6.99" class="st0" width="1.38" height="1.38"/>
<rect id="Rectángulo_285" x="8.41" y="8.83" class="st1" width="1.38" height="1.38"/>
<rect id="Rectángulo_286" x="8.41" y="10.33" class="st0" width="1.38" height="1.38"/>
<rect id="Rectángulo_287" x="8.41" y="11.83" class="st1" width="1.38" height="1.38"/>
<rect id="Rectángulo_288" x="8.41" y="13.33" class="st1" width="1.38" height="1.38"/>
<rect id="Rectángulo_289" x="8.41" y="14.83" class="st0" width="1.38" height="1.38"/>
<rect id="Rectángulo_290" x="8.41" y="16.33" class="st0" width="1.38" height="1.38"/>
<rect id="Rectángulo_291" x="8.41" y="4.23" class="st1" width="1.38" height="1.38"/>
<rect id="Rectángulo_292" x="8.41" y="2.84" class="st0" width="1.38" height="1.38"/>
<rect id="Rectángulo_293" x="6.57" y="5.61" class="st1" width="1.38" height="1.38"/>
<rect id="Rectángulo_294" x="6.57" y="6.99" class="st1" width="1.38" height="1.38"/>
<rect id="Rectángulo_295" x="6.57" y="8.83" class="st0" width="1.38" height="1.38"/>
<rect id="Rectángulo_296" x="6.57" y="10.33" class="st1" width="1.38" height="1.38"/>
<rect id="Rectángulo_297" x="6.57" y="11.83" class="st1" width="1.38" height="1.38"/>
<rect id="Rectángulo_298" x="6.57" y="13.33" class="st1" width="1.38" height="1.38"/>
<rect id="Rectángulo_299" x="6.57" y="14.83" class="st1" width="1.38" height="1.38"/>
<rect id="Rectángulo_300" x="6.57" y="16.33" class="st1" width="1.38" height="1.38"/>
<rect id="Rectángulo_301" x="6.57" y="4.23" class="st1" width="1.38" height="1.38"/>
<rect id="Rectángulo_302" x="6.57" y="2.84" class="st1" width="1.38" height="1.38"/>
<rect id="Rectángulo_303" x="20.4" y="20.82" class="st1" width="1.38" height="1.38"/>
<rect id="Rectángulo_304" x="20.4" y="22.32" class="st0" width="1.38" height="1.38"/>
<rect id="Rectángulo_305" x="20.4" y="23.82" class="st1" width="1.38" height="1.38"/>
<rect id="Rectángulo_306" x="20.4" y="25.31" class="st0" width="1.38" height="1.38"/>
<rect id="Rectángulo_307" x="20.4" y="26.81" class="st0" width="1.38" height="1.38"/>
<rect id="Rectángulo_308" x="20.4" y="28.31" class="st1" width="1.38" height="1.38"/>
<rect id="Rectángulo_309" x="20.4" y="29.81" class="st1" width="1.38" height="1.38"/>
<rect id="Rectángulo_310" x="20.4" y="31.65" class="st0" width="1.38" height="1.38"/>
<rect id="Rectángulo_311" x="20.4" y="19.32" class="st1" width="1.38" height="1.38"/>
<rect id="Rectángulo_312" x="20.4" y="17.82" class="st1" width="1.38" height="1.38"/>
<rect id="Rectángulo_313" x="18.9" y="20.82" class="st1" width="1.38" height="1.38"/>
<rect id="Rectángulo_314" x="18.9" y="22.32" class="st0" width="1.38" height="1.38"/>
<rect id="Rectángulo_315" x="18.9" y="23.82" class="st1" width="1.38" height="1.38"/>
<rect id="Rectángulo_316" x="18.9" y="25.31" class="st0" width="1.38" height="1.38"/>
<rect id="Rectángulo_317" x="18.9" y="26.81" class="st0" width="1.38" height="1.38"/>
<rect id="Rectángulo_318" x="18.9" y="28.31" class="st0" width="1.38" height="1.38"/>
<rect id="Rectángulo_319" x="18.9" y="29.81" class="st0" width="1.38" height="1.38"/>
<rect id="Rectángulo_320" x="18.9" y="31.65" class="st1" width="1.38" height="1.38"/>
<rect id="Rectángulo_321" x="18.9" y="19.32" class="st0" width="1.38" height="1.38"/>
<rect id="Rectángulo_322" x="18.9" y="17.82" class="st1" width="1.38" height="1.38"/>
<rect id="Rectángulo_323" x="17.4" y="20.82" class="st1" width="1.38" height="1.38"/>
<rect id="Rectángulo_324" x="17.4" y="22.32" class="st0" width="1.38" height="1.38"/>
<rect id="Rectángulo_325" x="17.4" y="23.82" class="st1" width="1.38" height="1.38"/>
<rect id="Rectángulo_326" x="17.4" y="25.31" class="st0" width="1.38" height="1.38"/>
<rect id="Rectángulo_327" x="17.4" y="26.81" class="st0" width="1.38" height="1.38"/>
<rect id="Rectángulo_328" x="17.4" y="28.31" class="st0" width="1.38" height="1.38"/>
<rect id="Rectángulo_329" x="17.4" y="29.81" class="st0" width="1.38" height="1.38"/>
<rect id="Rectángulo_330" x="17.4" y="31.65" class="st0" width="1.38" height="1.38"/>
<rect id="Rectángulo_331" x="17.4" y="19.32" class="st1" width="1.38" height="1.38"/>
<rect id="Rectángulo_332" x="17.4" y="17.82" class="st1" width="1.38" height="1.38"/>
<rect id="Rectángulo_333" x="15.9" y="20.82" class="st0" width="1.38" height="1.38"/>
<rect id="Rectángulo_334" x="15.9" y="22.32" class="st0" width="1.38" height="1.38"/>
<rect id="Rectángulo_335" x="15.9" y="23.82" class="st1" width="1.38" height="1.38"/>
<rect id="Rectángulo_336" x="15.9" y="25.31" class="st0" width="1.38" height="1.38"/>
<rect id="Rectángulo_337" x="15.9" y="26.81" class="st1" width="1.38" height="1.38"/>
<rect id="Rectángulo_338" x="15.9" y="28.31" class="st0" width="1.38" height="1.38"/>
<rect id="Rectángulo_339" x="15.9" y="29.81" class="st1" width="1.38" height="1.38"/>
<rect id="Rectángulo_340" x="15.9" y="31.65" class="st0" width="1.38" height="1.38"/>
<rect id="Rectángulo_341" x="15.9" y="19.32" class="st0" width="1.38" height="1.38"/>
<rect id="Rectángulo_342" x="15.9" y="17.82" class="st0" width="1.38" height="1.38"/>
<rect id="Rectángulo_343" x="14.41" y="20.82" class="st1" width="1.38" height="1.38"/>
<rect id="Rectángulo_344" x="14.41" y="22.32" class="st1" width="1.38" height="1.38"/>
<rect id="Rectángulo_345" x="14.41" y="23.82" class="st1" width="1.38" height="1.38"/>
<rect id="Rectángulo_346" x="14.41" y="25.31" class="st0" width="1.38" height="1.38"/>
<rect id="Rectángulo_347" x="14.41" y="26.81" class="st0" width="1.38" height="1.38"/>
<rect id="Rectángulo_348" x="14.41" y="28.31" class="st0" width="1.38" height="1.38"/>
<rect id="Rectángulo_349" x="14.41" y="29.81" class="st0" width="1.38" height="1.38"/>
<rect id="Rectángulo_350" x="14.41" y="31.65" class="st1" width="1.38" height="1.38"/>
<rect id="Rectángulo_351" x="14.41" y="19.32" class="st1" width="1.38" height="1.38"/>
<rect id="Rectángulo_352" x="14.41" y="17.82" class="st1" width="1.38" height="1.38"/>
<rect id="Rectángulo_353" x="12.91" y="20.82" class="st0" width="1.38" height="1.38"/>
<rect id="Rectángulo_354" x="12.91" y="22.32" class="st0" width="1.38" height="1.38"/>
<rect id="Rectángulo_355" x="12.91" y="23.82" class="st0" width="1.38" height="1.38"/>
<rect id="Rectángulo_356" x="12.91" y="25.31" class="st0" width="1.38" height="1.38"/>
<rect id="Rectángulo_357" x="12.91" y="26.81" class="st1" width="1.38" height="1.38"/>
<rect id="Rectángulo_358" x="12.91" y="28.31" class="st0" width="1.38" height="1.38"/>
<rect id="Rectángulo_359" x="12.91" y="29.81" class="st1" width="1.38" height="1.38"/>
<rect id="Rectángulo_360" x="12.91" y="31.65" class="st1" width="1.38" height="1.38"/>
<rect id="Rectángulo_361" x="12.91" y="19.32" class="st0" width="1.38" height="1.38"/>
<rect id="Rectángulo_362" x="12.91" y="17.82" class="st0" width="1.38" height="1.38"/>
<rect id="Rectángulo_363" x="11.41" y="20.82" class="st1" width="1.38" height="1.38"/>
<rect id="Rectángulo_364" x="11.41" y="22.32" class="st1" width="1.38" height="1.38"/>
<rect id="Rectángulo_365" x="11.41" y="23.82" class="st0" width="1.38" height="1.38"/>
<rect id="Rectángulo_366" x="11.41" y="25.31" class="st1" width="1.38" height="1.38"/>
<rect id="Rectángulo_367" x="11.41" y="26.81" class="st1" width="1.38" height="1.38"/>
<rect id="Rectángulo_368" x="11.41" y="28.31" class="st1" width="1.38" height="1.38"/>
<rect id="Rectángulo_369" x="11.41" y="29.81" class="st0" width="1.38" height="1.38"/>
<rect id="Rectángulo_370" x="11.41" y="31.65" class="st0" width="1.38" height="1.38"/>
<rect id="Rectángulo_371" x="11.41" y="19.32" class="st0" width="1.38" height="1.38"/>
<rect id="Rectángulo_372" x="11.41" y="17.82" class="st1" width="1.38" height="1.38"/>
<rect id="Rectángulo_373" x="9.91" y="20.82" class="st0" width="1.38" height="1.38"/>
<rect id="Rectángulo_374" x="9.91" y="22.32" class="st0" width="1.38" height="1.38"/>
<rect id="Rectángulo_375" x="9.91" y="23.82" class="st0" width="1.38" height="1.38"/>
<rect id="Rectángulo_376" x="9.91" y="25.31" class="st0" width="1.38" height="1.38"/>
<rect id="Rectángulo_377" x="9.91" y="26.81" class="st1" width="1.38" height="1.38"/>
<rect id="Rectángulo_378" x="9.91" y="28.31" class="st1" width="1.38" height="1.38"/>
<rect id="Rectángulo_379" x="9.91" y="29.81" class="st1" width="1.38" height="1.38"/>
<rect id="Rectángulo_380" x="9.91" y="31.65" class="st1" width="1.38" height="1.38"/>
<rect id="Rectángulo_381" x="9.91" y="19.32" class="st0" width="1.38" height="1.38"/>
<rect id="Rectángulo_382" x="9.91" y="17.82" class="st1" width="1.38" height="1.38"/>
<rect id="Rectángulo_383" x="8.41" y="20.82" class="st0" width="1.38" height="1.38"/>
<rect id="Rectángulo_384" x="8.41" y="22.32" class="st0" width="1.38" height="1.38"/>
<rect id="Rectángulo_385" x="8.41" y="23.82" class="st1" width="1.38" height="1.38"/>
<rect id="Rectángulo_386" x="8.41" y="25.31" class="st0" width="1.38" height="1.38"/>
<rect id="Rectángulo_387" x="8.41" y="26.81" class="st1" width="1.38" height="1.38"/>
<rect id="Rectángulo_388" x="8.41" y="28.31" class="st0" width="1.38" height="1.38"/>
<rect id="Rectángulo_389" x="8.41" y="29.81" class="st1" width="1.38" height="1.38"/>
<rect id="Rectángulo_390" x="8.41" y="31.65" class="st0" width="1.38" height="1.38"/>
<rect id="Rectángulo_391" x="8.41" y="19.32" class="st0" width="1.38" height="1.38"/>
<rect id="Rectángulo_392" x="8.41" y="17.82" class="st0" width="1.38" height="1.38"/>
<rect id="Rectángulo_393" x="6.57" y="20.82" class="st0" width="1.38" height="1.38"/>
<rect id="Rectángulo_394" x="6.57" y="22.32" class="st1" width="1.38" height="1.38"/>
<rect id="Rectángulo_395" x="6.57" y="23.82" class="st1" width="1.38" height="1.38"/>
<rect id="Rectángulo_396" x="6.57" y="25.31" class="st1" width="1.38" height="1.38"/>
<rect id="Rectángulo_397" x="6.57" y="26.81" class="st0" width="1.38" height="1.38"/>
<rect id="Rectángulo_398" x="6.57" y="28.31" class="st0" width="1.38" height="1.38"/>
<rect id="Rectángulo_399" x="6.57" y="29.81" class="st0" width="1.38" height="1.38"/>
<rect id="Rectángulo_400" x="6.57" y="31.65" class="st0" width="1.38" height="1.38"/>
<rect id="Rectángulo_401" x="35.38" y="33.03" class="st1" width="1.38" height="1.38"/>
<rect id="Rectángulo_402" x="35.38" y="34.42" class="st1" width="1.38" height="1.38"/>
<rect id="Rectángulo_403" x="35.38" y="35.8" class="st1" width="1.38" height="1.38"/>
<rect id="Rectángulo_404" x="33.99" y="33.03" class="st1" width="1.38" height="1.38"/>
<rect id="Rectángulo_405" x="33.99" y="34.42" class="st0" width="1.38" height="1.38"/>
<rect id="Rectángulo_406" x="33.99" y="35.8" class="st1" width="1.38" height="1.38"/>
<rect id="Rectángulo_407" x="32.61" y="33.03" class="st0" width="1.38" height="1.38"/>
<rect id="Rectángulo_408" x="32.61" y="34.42" class="st0" width="1.38" height="1.38"/>
<rect id="Rectángulo_409" x="32.61" y="35.8" class="st0" width="1.38" height="1.38"/>
<rect id="Rectángulo_410" x="31.23" y="33.03" class="st1" width="1.38" height="1.38"/>
<rect id="Rectángulo_411" x="31.23" y="34.42" class="st1" width="1.38" height="1.38"/>
<rect id="Rectángulo_412" x="31.23" y="35.8" class="st1" width="1.38" height="1.38"/>
<rect id="Rectángulo_413" x="29.39" y="33.03" class="st0" width="1.38" height="1.38"/>
<rect id="Rectángulo_414" x="29.39" y="34.42" class="st0" width="1.38" height="1.38"/>
<rect id="Rectángulo_415" x="29.39" y="35.8" class="st1" width="1.38" height="1.38"/>
<rect id="Rectángulo_416" x="27.89" y="33.03" class="st0" width="1.38" height="1.38"/>
<rect id="Rectángulo_417" x="27.89" y="34.42" class="st0" width="1.38" height="1.38"/>
<rect id="Rectángulo_418" x="27.89" y="35.8" class="st1" width="1.38" height="1.38"/>
<rect id="Rectángulo_419" x="26.39" y="33.03" class="st0" width="1.38" height="1.38"/>
<rect id="Rectángulo_420" x="26.39" y="34.42" class="st0" width="1.38" height="1.38"/>
<rect id="Rectángulo_421" x="26.39" y="35.8" class="st0" width="1.38" height="1.38"/>
<rect id="Rectángulo_422" x="24.89" y="33.03" class="st1" width="1.38" height="1.38"/>
<rect id="Rectángulo_423" x="24.89" y="34.42" class="st0" width="1.38" height="1.38"/>
<rect id="Rectángulo_424" x="24.89" y="35.8" class="st1" width="1.38" height="1.38"/>
<rect id="Rectángulo_425" x="23.39" y="33.03" class="st0" width="1.38" height="1.38"/>
<rect id="Rectángulo_426" x="23.39" y="34.42" class="st0" width="1.38" height="1.38"/>
<rect id="Rectángulo_427" x="23.39" y="35.8" class="st0" width="1.38" height="1.38"/>
<rect id="Rectángulo_428" x="21.89" y="33.03" class="st1" width="1.38" height="1.38"/>
<rect id="Rectángulo_429" x="21.89" y="34.42" class="st1" width="1.38" height="1.38"/>
<rect id="Rectángulo_430" x="21.89" y="35.8" class="st0" width="1.38" height="1.38"/>
<rect id="Rectángulo_431" x="20.4" y="33.03" class="st1" width="1.38" height="1.38"/>
<rect id="Rectángulo_432" x="20.4" y="34.42" class="st1" width="1.38" height="1.38"/>
<rect id="Rectángulo_433" x="20.4" y="35.8" class="st1" width="1.38" height="1.38"/>
<rect id="Rectángulo_434" x="18.9" y="33.03" class="st1" width="1.38" height="1.38"/>
<rect id="Rectángulo_435" x="18.9" y="34.42" class="st1" width="1.38" height="1.38"/>
<rect id="Rectángulo_436" x="18.9" y="35.8" class="st1" width="1.38" height="1.38"/>
<rect id="Rectángulo_437" x="17.4" y="33.03" class="st1" width="1.38" height="1.38"/>
<rect id="Rectángulo_438" x="17.4" y="34.42" class="st1" width="1.38" height="1.38"/>
<rect id="Rectángulo_439" x="17.4" y="35.8" class="st0" width="1.38" height="1.38"/>
<rect id="Rectángulo_440" x="15.9" y="33.03" class="st1" width="1.38" height="1.38"/>
<rect id="Rectángulo_441" x="15.9" y="34.42" class="st0" width="1.38" height="1.38"/>
<rect id="Rectángulo_442" x="15.9" y="35.8" class="st0" width="1.38" height="1.38"/>
<rect id="Rectángulo_443" x="14.41" y="33.03" class="st0" width="1.38" height="1.38"/>
<rect id="Rectángulo_444" x="14.41" y="34.42" class="st0" width="1.38" height="1.38"/>
<rect id="Rectángulo_445" x="14.41" y="35.8" class="st1" width="1.38" height="1.38"/>
<rect id="Rectángulo_446" x="12.91" y="33.03" class="st0" width="1.38" height="1.38"/>
<rect id="Rectángulo_447" x="12.91" y="34.42" class="st1" width="1.38" height="1.38"/>
<rect id="Rectángulo_448" x="12.91" y="35.8" class="st1" width="1.38" height="1.38"/>
<rect id="Rectángulo_449" x="11.41" y="33.03" class="st1" width="1.38" height="1.38"/>
<rect id="Rectángulo_450" x="11.41" y="34.42" class="st1" width="1.38" height="1.38"/>
<rect id="Rectángulo_451" x="11.41" y="35.8" class="st0" width="1.38" height="1.38"/>
<rect id="Rectángulo_452" x="9.91" y="33.03" class="st1" width="1.38" height="1.38"/>
<rect id="Rectángulo_453" x="9.91" y="34.42" class="st0" width="1.38" height="1.38"/>
<rect id="Rectángulo_454" x="9.91" y="35.8" class="st0" width="1.38" height="1.38"/>
<rect id="Rectángulo_455" x="8.41" y="33.03" class="st1" width="1.38" height="1.38"/>
<rect id="Rectángulo_456" x="8.41" y="34.42" class="st0" width="1.38" height="1.38"/>
<rect id="Rectángulo_457" x="8.41" y="35.8" class="st1" width="1.38" height="1.38"/>
<rect id="Rectángulo_458" x="6.57" y="33.03" class="st0" width="1.38" height="1.38"/>
<rect id="Rectángulo_459" x="6.57" y="34.42" class="st1" width="1.38" height="1.38"/>
<rect id="Rectángulo_460" x="6.57" y="35.8" class="st0" width="1.38" height="1.38"/>
<rect id="Rectángulo_461" x="6.57" y="19.32" class="st0" width="1.38" height="1.38"/>
<rect id="Rectángulo_462" x="6.57" y="17.82" class="st0" width="1.38" height="1.38"/>
<rect id="Rectángulo_463" x="5.19" y="5.61" class="st1" width="1.38" height="1.38"/>
<rect id="Rectángulo_464" x="5.19" y="6.99" class="st0" width="1.38" height="1.38"/>
<rect id="Rectángulo_465" x="5.19" y="8.83" class="st1" width="1.38" height="1.38"/>
<rect id="Rectángulo_466" x="5.19" y="10.33" class="st1" width="1.38" height="1.38"/>
<rect id="Rectángulo_467" x="5.19" y="11.83" class="st0" width="1.38" height="1.38"/>
<rect id="Rectángulo_468" x="5.19" y="13.33" class="st0" width="1.38" height="1.38"/>
<rect id="Rectángulo_469" x="5.19" y="14.83" class="st0" width="1.38" height="1.38"/>
<rect id="Rectángulo_470" x="5.19" y="16.33" class="st0" width="1.38" height="1.38"/>
<rect id="Rectángulo_471" x="5.19" y="4.23" class="st1" width="1.38" height="1.38"/>
<rect id="Rectángulo_472" x="5.19" y="2.84" class="st1" width="1.38" height="1.38"/>
<rect id="Rectángulo_473" x="3.8" y="5.61" class="st0" width="1.38" height="1.38"/>
<rect id="Rectángulo_474" x="3.8" y="6.99" class="st0" width="1.38" height="1.38"/>
<rect id="Rectángulo_475" x="3.8" y="8.83" class="st1" width="1.38" height="1.38"/>
<rect id="Rectángulo_476" x="3.8" y="10.33" class="st0" width="1.38" height="1.38"/>
<rect id="Rectángulo_477" x="3.8" y="11.83" class="st1" width="1.38" height="1.38"/>
<rect id="Rectángulo_478" x="3.8" y="13.33" class="st1" width="1.38" height="1.38"/>
<rect id="Rectángulo_479" x="3.8" y="14.83" class="st1" width="1.38" height="1.38"/>
<rect id="Rectángulo_480" x="3.8" y="16.33" class="st1" width="1.38" height="1.38"/>
<rect id="Rectángulo_481" x="3.8" y="4.23" class="st1" width="1.38" height="1.38"/>
<rect id="Rectángulo_482" x="3.8" y="2.84" class="st1" width="1.38" height="1.38"/>
<rect id="Rectángulo_483" x="2.42" y="5.61" class="st0" width="1.38" height="1.38"/>
<rect id="Rectángulo_484" x="2.42" y="6.99" class="st0" width="1.38" height="1.38"/>
<rect id="Rectángulo_485" x="2.42" y="8.83" class="st1" width="1.38" height="1.38"/>
<rect id="Rectángulo_486" x="2.42" y="10.33" class="st1" width="1.38" height="1.38"/>
<rect id="Rectángulo_487" x="2.42" y="11.83" class="st1" width="1.38" height="1.38"/>
<rect id="Rectángulo_488" x="2.42" y="13.33" class="st0" width="1.38" height="1.38"/>
<rect id="Rectángulo_489" x="2.42" y="14.83" class="st0" width="1.38" height="1.38"/>
<rect id="Rectángulo_490" x="2.42" y="16.33" class="st0" width="1.38" height="1.38"/>
<rect id="Rectángulo_491" x="2.42" y="4.23" class="st0" width="1.38" height="1.38"/>
<rect id="Rectángulo_492" x="2.42" y="2.84" class="st0" width="1.38" height="1.38"/>
<rect id="Rectángulo_493" x="5.19" y="20.82" class="st0" width="1.38" height="1.38"/>
<rect id="Rectángulo_494" x="5.19" y="22.32" class="st0" width="1.38" height="1.38"/>
<rect id="Rectángulo_495" x="5.19" y="23.82" class="st0" width="1.38" height="1.38"/>
<rect id="Rectángulo_496" x="5.19" y="25.31" class="st0" width="1.38" height="1.38"/>
<rect id="Rectángulo_497" x="5.19" y="26.81" class="st0" width="1.38" height="1.38"/>
<rect id="Rectángulo_498" x="5.19" y="28.31" class="st0" width="1.38" height="1.38"/>
<rect id="Rectángulo_499" x="5.19" y="29.81" class="st1" width="1.38" height="1.38"/>
<rect id="Rectángulo_500" x="5.19" y="31.65" class="st1" width="1.38" height="1.38"/>
<rect id="Rectángulo_501" x="5.19" y="19.32" class="st0" width="1.38" height="1.38"/>
<rect id="Rectángulo_502" x="5.19" y="17.82" class="st0" width="1.38" height="1.38"/>
<rect id="Rectángulo_503" x="3.8" y="20.82" class="st1" width="1.38" height="1.38"/>
<rect id="Rectángulo_504" x="3.8" y="22.32" class="st1" width="1.38" height="1.38"/>
<rect id="Rectángulo_505" x="3.8" y="23.82" class="st0" width="1.38" height="1.38"/>
<rect id="Rectángulo_506" x="3.8" y="25.31" class="st0" width="1.38" height="1.38"/>
<rect id="Rectángulo_507" x="3.8" y="26.81" class="st0" width="1.38" height="1.38"/>
<rect id="Rectángulo_508" x="3.8" y="28.31" class="st0" width="1.38" height="1.38"/>
<rect id="Rectángulo_509" x="3.8" y="29.81" class="st0" width="1.38" height="1.38"/>
<rect id="Rectángulo_510" x="3.8" y="31.65" class="st1" width="1.38" height="1.38"/>
<rect id="Rectángulo_511" x="3.8" y="19.32" class="st1" width="1.38" height="1.38"/>
<rect id="Rectángulo_512" x="3.8" y="17.82" class="st1" width="1.38" height="1.38"/>
<rect id="Rectángulo_513" x="2.42" y="20.82" class="st1" width="1.38" height="1.38"/>
<rect id="Rectángulo_514" x="2.42" y="22.32" class="st1" width="1.38" height="1.38"/>
<rect id="Rectángulo_515" x="2.42" y="23.82" class="st1" width="1.38" height="1.38"/>
<rect id="Rectángulo_516" x="2.42" y="25.31" class="st1" width="1.38" height="1.38"/>
<rect id="Rectángulo_517" x="2.42" y="26.81" class="st1" width="1.38" height="1.38"/>
<rect id="Rectángulo_518" x="2.42" y="28.31" class="st1" width="1.38" height="1.38"/>
<rect id="Rectángulo_519" x="2.42" y="29.81" class="st1" width="1.38" height="1.38"/>
<rect id="Rectángulo_520" x="2.42" y="31.65" class="st1" width="1.38" height="1.38"/>
<rect id="Rectángulo_521" x="5.19" y="33.03" class="st0" width="1.38" height="1.38"/>
<rect id="Rectángulo_522" x="5.19" y="34.42" class="st1" width="1.38" height="1.38"/>
<rect id="Rectángulo_523" x="5.19" y="35.8" class="st1" width="1.38" height="1.38"/>
<rect id="Rectángulo_524" x="3.8" y="33.03" class="st1" width="1.38" height="1.38"/>
<rect id="Rectángulo_525" x="3.8" y="34.42" class="st1" width="1.38" height="1.38"/>
<rect id="Rectángulo_526" x="3.8" y="35.8" class="st0" width="1.38" height="1.38"/>
<rect id="Rectángulo_527" x="2.42" y="33.03" class="st1" width="1.38" height="1.38"/>
<rect id="Rectángulo_528" x="2.42" y="34.42" class="st1" width="1.38" height="1.38"/>
<rect id="Rectángulo_529" x="2.42" y="35.8" class="st1" width="1.38" height="1.38"/>
<rect id="Rectángulo_530" x="2.42" y="19.32" class="st0" width="1.38" height="1.38"/>
<rect id="Rectángulo_531" x="2.42" y="17.82" class="st0" width="1.38" height="1.38"/>
</svg>
