<?xml version="1.0" encoding="utf-8"?>
<!-- Generator: Adobe Illustrator 24.1.3, SVG Export Plug-In . SVG Version: 6.00 Build 0)  -->
<svg version="1.1" id="Capa_1" xmlns="http://www.w3.org/2000/svg" xmlns:xlink="http://www.w3.org/1999/xlink" x="0px" y="0px"
	 viewBox="0 0 40 40" style="enable-background:new 0 0 40 40;" xml:space="preserve">
<style type="text/css">
	.st0{fill:#FFFFFF;}
</style>
<path id="Trazado_605" class="st0" d="M21.31,8.83c2.07,0.24,4.03,1.05,5.67,2.35l-1.86,1.86c-1.12-0.83-2.43-1.37-3.8-1.58v7.23
	h7.23c-0.21-1.38-0.75-2.68-1.58-3.81l1.86-1.86c1.3,1.63,2.11,3.6,2.35,5.67h6.45v2.61h-6.45c-0.24,2.07-1.05,4.03-2.35,5.67
	l-1.86-1.86c0.83-1.12,1.37-2.43,1.58-3.81h-7.23v7.23c1.38-0.21,2.68-0.75,3.8-1.58l1.86,1.86c-1.63,1.3-3.6,2.11-5.67,2.35v6.45
	h-2.61v-6.45c-2.07-0.24-4.03-1.05-5.67-2.35l1.86-1.86c1.12,0.83,2.43,1.37,3.81,1.58v-7.23h-7.23c0.21,1.38,0.75,2.68,1.58,3.81
	l-1.86,1.86c-1.3-1.63-2.11-3.6-2.35-5.67H2.38v-2.61h6.45c0.24-2.07,1.05-4.03,2.35-5.67l1.86,1.86c-0.83,1.12-1.37,2.43-1.58,3.81
	h7.23v-7.23c-1.38,0.21-2.68,0.75-3.81,1.58l-1.86-1.86c1.63-1.3,3.6-2.11,5.67-2.35V2.38h2.61L21.31,8.83L21.31,8.83z"/>
</svg>
