<?xml version="1.0" encoding="utf-8"?>
<!-- Generator: Adobe Illustrator 24.1.3, SVG Export Plug-In . SVG Version: 6.00 Build 0)  -->
<svg version="1.1" id="Capa_1" xmlns="http://www.w3.org/2000/svg" xmlns:xlink="http://www.w3.org/1999/xlink" x="0px" y="0px"
	 viewBox="0 0 40 40" style="enable-background:new 0 0 40 40;" xml:space="preserve">
<style type="text/css">
	.st0{fill:#FFFFFF;}
</style>
<g id="Grupo_35" transform="translate(-852.952 -1216.626)">
	<g id="Grupo_29" transform="translate(853.304 1234.305)">
		<rect id="Rectángulo_563" x="2.14" y="1.03" class="st0" width="34.88" height="2.27"/>
	</g>
	<g id="Grupo_30" transform="translate(852.952 1216.626)">
		<path id="Trazado_606" class="st0" d="M20.07,37.69c-9.89,0-17.92-8.02-17.92-17.92c0-9.89,8.02-17.92,17.92-17.92
			c9.89,0,17.92,8.02,17.92,17.92C37.97,29.66,29.96,37.68,20.07,37.69z M20.07,4.13c-8.64,0-15.64,7-15.64,15.64
			c0,8.64,7,15.64,15.64,15.64c8.64,0,15.64-7,15.64-15.64C35.71,11.14,28.71,4.14,20.07,4.13L20.07,4.13z"/>
	</g>
	<g id="Grupo_31" transform="translate(861.504 1216.858)">
		<path id="Trazado_607" class="st0" d="M12.58,37.37l-1.51-0.53c-0.38-0.13-9.32-3.45-9.31-17.37C1.76,7.38,8.03,3.33,10.31,2.26
			V1.85h2.27V37.37z M10.31,4.85c-2.26,1.43-6.28,5.29-6.28,14.61c-0.01,8.96,4,12.9,6.28,14.42V4.85z"/>
	</g>
	<g id="Grupo_32" transform="translate(870.481 1216.858)">
		<path id="Trazado_608" class="st0" d="M1.33,37.36V1.85H3.6v0.41c2.29,1.07,8.62,5.11,8.63,17.2c0.01,7.22-2.5,11.54-4.6,13.89
			c-1.3,1.52-2.94,2.72-4.79,3.49L1.33,37.36z M3.6,4.84v29.05c2.29-1.5,6.37-5.44,6.36-14.43C9.95,10.11,5.88,6.26,3.6,4.84
			L3.6,4.84z"/>
	</g>
	<g id="Grupo_33" transform="translate(857.666 1222.967)">
		<path id="Trazado_609" class="st0" d="M15.36,8.92h-0.08C10.18,8.95,5.33,6.78,1.93,2.98l1.78-1.42L2.82,2.27l0.89-0.71
			c2.98,3.24,7.18,5.08,11.58,5.09h0.07c4.42-0.02,8.64-1.86,11.66-5.1l1.76,1.44C25.35,6.78,20.47,8.94,15.36,8.92z"/>
	</g>
	<g id="Grupo_34" transform="translate(857.666 1240.647)">
		<path id="Trazado_610" class="st0" d="M27.01,8.09C23.99,4.86,19.77,3.02,15.35,3h-0.07c-4.4-0.01-8.61,1.84-11.58,5.09L1.93,6.67
			c3.39-3.8,8.25-5.96,13.34-5.94h0.08c5.11-0.01,9.99,2.14,13.41,5.93L27.01,8.09z"/>
	</g>
</g>
</svg>
